<svg xmlns="http://www.w3.org/2000/svg" width="412" height="223" fill="none" viewBox="0 0 412 223">
  <path fill="#00A9FF" d="M205.94 94c-11.04 0-20 8.96-20 20s8.96 20 20 20 20-8.96 20-20-8.94-20-20-20Zm7.5 20.7-7.44 8.46-.88 1c-1.22 1.38-2.22 1.02-2.22-.84v-7.92h-3.4c-1.54 0-1.96-.94-.94-2.1l7.44-8.46.88-1c1.22-1.38 2.22-1.02 2.22.84v7.92h3.4c1.54 0 1.96.94.94 2.1Z"/>
  <g clip-path="url(#a)">
    <path stroke="#9394A1" stroke-opacity=".06" stroke-width=".631" d="M-12.452-1.566h31.548v31.548h-31.548z"/>
    <path stroke="#9394A1" stroke-opacity=".06" stroke-width=".631" d="M19.095-1.566h31.548v31.548H19.095zm31.548 0h31.548v31.548H50.643z"/>
    <path fill="#9394A1" fill-opacity=".12" stroke="#9394A1" stroke-opacity=".06" stroke-width=".631" d="M82.19-1.566h31.548v31.548H82.19z"/>
    <path stroke="#9394A1" stroke-opacity=".06" stroke-width=".631" d="M113.738-1.566h31.548v31.548h-31.548zm31.548 0h31.548v31.548h-31.548zm31.548 0h31.548v31.548h-31.548z"/>
    <path stroke="#9394A1" stroke-opacity=".06" stroke-width=".631" d="M208.381-1.566h31.548v31.548h-31.548z"/>
    <path stroke="#9394A1" stroke-opacity=".06" stroke-width=".631" d="M239.929-1.566h31.548v31.548h-31.548z"/>
    <path stroke="#9394A1" stroke-opacity=".06" stroke-width=".631" d="M271.476-1.566h31.548v31.548h-31.548zm31.548 0h31.548v31.548h-31.548zm31.548 0h31.548v31.548h-31.548z"/>
    <path stroke="#9394A1" stroke-opacity=".06" stroke-width=".631" d="M366.119-1.566h31.548v31.548h-31.548z"/>
    <path stroke="#9394A1" stroke-opacity=".06" stroke-width=".631" d="M397.667-1.566h31.548v31.548h-31.548zM-12.452 29.981h31.548v31.548h-31.548z"/>
    <path stroke="#9394A1" stroke-opacity=".06" stroke-width=".631" d="M19.095 29.981h31.548v31.548H19.095zm31.548 0h31.548v31.548H50.643z"/>
    <path stroke="#9394A1" stroke-opacity=".06" stroke-width=".631" d="M82.19 29.981h31.548v31.548H82.19zm31.548 0h31.548v31.548h-31.548zm31.548 0h31.548v31.548h-31.548zm31.548 0h31.548v31.548h-31.548z"/>
    <path stroke="#9394A1" stroke-opacity=".06" stroke-width=".631" d="M208.381 29.981h31.548v31.548h-31.548z"/>
    <path stroke="#9394A1" stroke-opacity=".06" stroke-width=".631" d="M239.929 29.981h31.548v31.548h-31.548z"/>
    <path stroke="#9394A1" stroke-opacity=".06" stroke-width=".631" d="M271.476 29.981h31.548v31.548h-31.548zm31.548 0h31.548v31.548h-31.548z"/>
    <path fill="#FAFAFA" stroke="#9394A1" stroke-opacity=".06" stroke-width=".631" d="M334.572 29.981h31.548v31.548h-31.548z"/>
    <path stroke="#9394A1" stroke-opacity=".06" stroke-width=".631" d="M366.119 29.981h31.548v31.548h-31.548z"/>
    <path stroke="#9394A1" stroke-opacity=".06" stroke-width=".631" d="M397.667 29.981h31.548v31.548h-31.548zM-12.452 61.529h31.548v31.548h-31.548z"/>
    <path fill="#D9D9D9" fill-opacity=".12" stroke="#9394A1" stroke-opacity=".06" stroke-width=".631" d="M19.095 61.529h31.548v31.548H19.095z"/>
    <path stroke="#9394A1" stroke-opacity=".06" stroke-width=".631" d="M50.643 61.529h31.548v31.548H50.643z"/>
    <path stroke="#9394A1" stroke-opacity=".06" stroke-width=".631" d="M82.19 61.529h31.548v31.548H82.19zm31.548 0h31.548v31.548h-31.548zm31.548 0h31.548v31.548h-31.548zm31.548 0h31.548v31.548h-31.548z"/>
    <path fill="#F2F2F3" stroke="#9394A1" stroke-opacity=".06" stroke-width=".631" d="M208.381 61.529h31.548v31.548h-31.548z"/>
    <path stroke="#9394A1" stroke-opacity=".06" stroke-width=".631" d="M239.929 61.529h31.548v31.548h-31.548z"/>
    <path stroke="#9394A1" stroke-opacity=".06" stroke-width=".631" d="M271.476 61.529h31.548v31.548h-31.548zm31.548 0h31.548v31.548h-31.548zm31.548 0h31.548v31.548h-31.548z"/>
    <path stroke="#9394A1" stroke-opacity=".06" stroke-width=".631" d="M366.119 61.529h31.548v31.548h-31.548z"/>
    <path stroke="#9394A1" stroke-opacity=".06" stroke-width=".631" d="M397.667 61.529h31.548v31.548h-31.548zM-12.452 93.076h31.548v31.548h-31.548z"/>
    <path stroke="#9394A1" stroke-opacity=".06" stroke-width=".631" d="M19.095 93.076h31.548v31.548H19.095zm31.548 0h31.548v31.548H50.643z"/>
    <path stroke="#9394A1" stroke-opacity=".06" stroke-width=".631" d="M82.19 93.076h31.548v31.548H82.19zm31.548 0h31.548v31.548h-31.548zm31.548 0h31.548v31.548h-31.548zm31.548 0h31.548v31.548h-31.548z"/>
    <path stroke="#9394A1" stroke-opacity=".06" stroke-width=".631" d="M208.381 93.076h31.548v31.548h-31.548z"/>
    <path stroke="#9394A1" stroke-opacity=".06" stroke-width=".631" d="M239.929 93.076h31.548v31.548h-31.548z"/>
    <path stroke="#9394A1" stroke-opacity=".06" stroke-width=".631" d="M271.476 93.076h31.548v31.548h-31.548zm31.548 0h31.548v31.548h-31.548zm31.548 0h31.548v31.548h-31.548z"/>
    <path stroke="#9394A1" stroke-opacity=".06" stroke-width=".631" d="M366.119 93.076h31.548v31.548h-31.548z"/>
    <path stroke="#9394A1" stroke-opacity=".06" stroke-width=".631" d="M397.667 93.076h31.548v31.548h-31.548zm-410.119 31.548h31.548v31.548h-31.548z"/>
    <path stroke="#9394A1" stroke-opacity=".06" stroke-width=".631" d="M19.095 124.624h31.548v31.548H19.095zm31.548 0h31.548v31.548H50.643z"/>
    <path stroke="#9394A1" stroke-opacity=".06" stroke-width=".631" d="M82.19 124.624h31.548v31.548H82.19zm31.548 0h31.548v31.548h-31.548zm31.548 0h31.548v31.548h-31.548zm31.548 0h31.548v31.548h-31.548z"/>
    <path stroke="#9394A1" stroke-opacity=".06" stroke-width=".631" d="M208.381 124.624h31.548v31.548h-31.548z"/>
    <path stroke="#9394A1" stroke-opacity=".06" stroke-width=".631" d="M239.929 124.624h31.548v31.548h-31.548z"/>
    <path stroke="#9394A1" stroke-opacity=".06" stroke-width=".631" d="M271.476 124.624h31.548v31.548h-31.548zm31.548 0h31.548v31.548h-31.548zm31.548 0h31.548v31.548h-31.548z"/>
    <path stroke="#9394A1" stroke-opacity=".06" stroke-width=".631" d="M366.119 124.624h31.548v31.548h-31.548z"/>
    <path stroke="#9394A1" stroke-opacity=".06" stroke-width=".631" d="M397.667 124.624h31.548v31.548h-31.548z"/>
  </g>
  <path fill="#D9D9D9" d="M7.07 8.053a2.667 2.667 0 1 0 5.334 0 2.667 2.667 0 0 0-5.334 0Zm169.43 106.5a.5.5 0 0 0 0-1v1ZM60.272 103.828l-.442.234.442-.234ZM9.295 8.286l50.535 95.776.884-.467L10.18 7.819l-.884.467Zm67.932 106.267H176.5v-1H77.227v1Zm-11.949-4.045a19.673 19.673 0 0 0 11.949 4.045v-1c-4.1 0-8.085-1.35-11.342-3.84l-.607.795Zm-5.448-6.446a19.676 19.676 0 0 0 5.448 6.446l.607-.795a18.664 18.664 0 0 1-5.17-6.118l-.885.467ZM408.403 220a2.666 2.666 0 1 0-5.332-.002 2.666 2.666 0 0 0 5.332.002ZM235 113.5a.5.5 0 0 0 0 1v-1Zm103.247.5v.5-.5Zm16.955 10.224.442-.233-.442.233Zm50.977 95.543-50.535-95.776-.884.466 50.535 95.776.884-.466ZM338.247 113.5H235v1h103.247v-1Zm11.949 4.045a19.669 19.669 0 0 0-11.949-4.045v1a18.67 18.67 0 0 1 11.341 3.839l.608-.794Zm5.448 6.446a19.661 19.661 0 0 0-5.448-6.446l-.608.794a18.69 18.69 0 0 1 5.172 6.118l.884-.466Z"/>
  <g filter="url(#b)">
    <path fill="#00A9FF" fill-opacity=".3" d="M74 115.4a2 2 0 1 1 0-4h27a2 2 0 1 1 0 4H74Z"/>
  </g>
  <mask id="d" fill="#fff">
    <path d="M76.75 114.4a.75.75 0 0 1 0-1.5h20.5a.75.75 0 0 1 0 1.5h-20.5Z"/>
  </mask>
  <path fill="url(#c)" d="M76.75 114.4a.75.75 0 0 1 0-1.5h20.5a.75.75 0 0 1 0 1.5h-20.5Z"/>
  <path fill="#fff" fill-opacity=".15" d="M75.75 114.4a.75.75 0 0 1 0-1.5H77v1.5h-1.25Zm22.5-1.5a.75.75 0 0 1 0 1.5H97v-1.5h1.25Zm-.25 1.5H76h22Zm-22-1.5h22-22Z" mask="url(#d)"/>
  <g filter="url(#e)">
    <path fill="#00A9FF" fill-opacity=".3" d="M314.737 115.4a2 2 0 1 1 0-4h27a2 2 0 0 1 0 4h-27Z"/>
  </g>
  <mask id="g" fill="#fff">
    <path d="M317.487 114.4a.75.75 0 0 1 0-1.5h20.5a.75.75 0 0 1 0 1.5h-20.5Z"/>
  </mask>
  <path fill="url(#f)" d="M317.487 114.4a.75.75 0 0 1 0-1.5h20.5a.75.75 0 0 1 0 1.5h-20.5Z"/>
  <path fill="#fff" fill-opacity=".15" d="M316.487 114.4a.75.75 0 0 1 0-1.5h1.25v1.5h-1.25Zm22.5-1.5a.75.75 0 0 1 0 1.5h-1.25v-1.5h1.25Zm-.25 1.5h-22 22Zm-22-1.5h22-22Z" mask="url(#g)"/>
  <defs>
    <linearGradient id="c" x1="66.74" x2="67.087" y1="114.697" y2="110.4" gradientUnits="userSpaceOnUse">
      <stop stop-color="#00A9FF"/>
      <stop offset=".88" stop-color="#00A9FF" stop-opacity=".6"/>
    </linearGradient>
    <linearGradient id="f" x1="307.476" x2="307.824" y1="114.697" y2="110.4" gradientUnits="userSpaceOnUse">
      <stop stop-color="#00A9FF"/>
      <stop offset=".88" stop-color="#00A9FF" stop-opacity=".6"/>
    </linearGradient>
    <filter id="b" width="64.4" height="37.4" x="55.3" y="94.7" color-interpolation-filters="sRGB" filterUnits="userSpaceOnUse">
      <feFlood flood-opacity="0" result="BackgroundImageFix"/>
      <feBlend in="SourceGraphic" in2="BackgroundImageFix" result="shape"/>
      <feGaussianBlur result="effect1_foregroundBlur_33_2723" stdDeviation="8.35"/>
    </filter>
    <filter id="e" width="64.4" height="37.4" x="296.037" y="94.7" color-interpolation-filters="sRGB" filterUnits="userSpaceOnUse">
      <feFlood flood-opacity="0" result="BackgroundImageFix"/>
      <feBlend in="SourceGraphic" in2="BackgroundImageFix" result="shape"/>
      <feGaussianBlur result="effect1_foregroundBlur_33_2723" stdDeviation="8.35"/>
    </filter>
    <clipPath id="a">
      <path fill="#fff" d="M-44-253.947h662.5v424H-44z"/>
    </clipPath>
  </defs>
</svg>
