<svg width="40" height="40" viewBox="0 0 40 40" fill="none" xmlns="http://www.w3.org/2000/svg">
<g clip-path="url(#clip0_18_1477)">
<rect width="40" height="40" rx="20" fill="white"/>
<g clip-path="url(#clip1_18_1477)">
<g clip-path="url(#clip2_18_1477)">
<path d="M20 12.5C18.1103 12.4968 16.2891 13.2071 14.9005 14.4887C13.5119 15.7703 12.6583 17.5289 12.5104 19.4128C12.3624 21.2966 12.931 23.1669 14.1025 24.6496C15.274 26.1323 16.962 27.1182 18.829 27.41V22.168H16.924V20H18.829V18.348C18.829 16.468 19.947 15.43 21.661 15.43C22.481 15.43 23.34 15.577 23.34 15.577V17.422H22.395C21.463 17.422 21.172 18 21.172 18.593V20H23.252L22.92 22.168H21.172V27.409C23.0377 27.1157 24.7241 26.1293 25.8942 24.6469C27.0644 23.1644 27.6322 21.2951 27.4842 19.4122C27.3362 17.5294 26.4833 15.7718 25.0958 14.4904C23.7084 13.209 21.8886 12.4982 20 12.5Z" fill="#009EFF"/>
<path d="M20 12.5C18.1103 12.4968 16.2891 13.2071 14.9005 14.4887C13.5119 15.7703 12.6583 17.5289 12.5104 19.4128C12.3624 21.2966 12.931 23.1669 14.1025 24.6496C15.274 26.1323 16.962 27.1182 18.829 27.41V22.168H16.924V20H18.829V18.348C18.829 16.468 19.947 15.43 21.661 15.43C22.481 15.43 23.34 15.577 23.34 15.577V17.422H22.395C21.463 17.422 21.172 18 21.172 18.593V20H23.252L22.92 22.168H21.172V27.409C23.0377 27.1157 24.7241 26.1293 25.8942 24.6469C27.0644 23.1644 27.6322 21.2951 27.4842 19.4122C27.3362 17.5294 26.4833 15.7718 25.0958 14.4904C23.7084 13.209 21.8886 12.4982 20 12.5Z" fill="url(#paint0_linear_18_1477)" fill-opacity="0.24"/>
</g>
</g>
<rect x="0.5" y="0.5" width="39" height="39" rx="19.5" stroke="#E9EBF1"/>
</g>
<defs>
<linearGradient id="paint0_linear_18_1477" x1="20" y1="12.5" x2="20" y2="27.409" gradientUnits="userSpaceOnUse">
<stop stop-color="white"/>
<stop offset="1" stop-color="white" stop-opacity="0"/>
</linearGradient>
<clipPath id="clip0_18_1477">
<rect width="40" height="40" rx="20" fill="white"/>
</clipPath>
<clipPath id="clip1_18_1477">
<rect width="24" height="24" fill="white" transform="translate(8 8)"/>
</clipPath>
<clipPath id="clip2_18_1477">
<rect width="24" height="24" fill="white" transform="translate(8 8)"/>
</clipPath>
</defs>
</svg>
