<svg xmlns="http://www.w3.org/2000/svg" width="636" height="128" fill="none" viewBox="0 0 636 128">
  <path stroke="#D9D9D9" d="M11.5 86.5h42.69a18 18 0 0 0 15.526-8.894l28.568-48.712A18 18 0 0 1 113.81 20h39.452a18 18 0 0 1 17.753 15.027l12.828 76.611c1.533 9.155 9.457 15.862 18.739 15.862h234.684a19 19 0 0 0 18.667-15.457l14.786-77.9A18.001 18.001 0 0 1 488.405 19.5h34.784a18 18 0 0 1 15.527 8.894l28.568 48.712A18 18 0 0 0 582.811 86H624"/>
  <g filter="url(#a)">
    <path fill="#00A9FF" fill-opacity=".3" d="M27 88a2 2 0 1 1 0-4h27a2 2 0 1 1 0 4H27Z"/>
  </g>
  <mask id="c" fill="#fff">
    <path d="M29.75 87a.75.75 0 0 1 0-1.5h20.5a.75.75 0 0 1 0 1.5h-20.5Z"/>
  </mask>
  <path fill="url(#b)" d="M29.75 87a.75.75 0 0 1 0-1.5h20.5a.75.75 0 0 1 0 1.5h-20.5Z"/>
  <path fill="#fff" fill-opacity=".15" d="M28.75 87a.75.75 0 0 1 0-1.5H30V87h-1.25Zm22.5-1.5a.75.75 0 0 1 0 1.5H50v-1.5h1.25ZM51 87H29h22Zm-22-1.5h22-22Z" mask="url(#c)"/>
  <g filter="url(#d)">
    <path fill="#00A9FF" fill-opacity=".3" d="M493 21a2 2 0 1 1 0-4h27a2 2 0 1 1 0 4h-27Z"/>
  </g>
  <mask id="f" fill="#fff">
    <path d="M495.75 20a.75.75 0 0 1 0-1.5h20.5a.75.75 0 0 1 0 1.5h-20.5Z"/>
  </mask>
  <path fill="url(#e)" d="M495.75 20a.75.75 0 0 1 0-1.5h20.5a.75.75 0 0 1 0 1.5h-20.5Z"/>
  <path fill="#fff" fill-opacity=".15" d="M494.75 20a.75.75 0 0 1 0-1.5H496V20h-1.25Zm22.5-1.5a.75.75 0 0 1 0 1.5H516v-1.5h1.25ZM517 20h-22 22Zm-22-1.5h22-22Z" mask="url(#f)"/>
  <circle cx="630" cy="86" r="5.5" stroke="#D9D9D9"/>
  <circle cx="6" cy="86" r="5.5" stroke="#D9D9D9"/>
  <defs>
    <linearGradient id="b" x1="19.739" x2="20.087" y1="87.297" y2="83" gradientUnits="userSpaceOnUse">
      <stop stop-color="#00A9FF"/>
      <stop offset=".88" stop-color="#00A9FF" stop-opacity=".6"/>
    </linearGradient>
    <linearGradient id="e" x1="485.739" x2="486.087" y1="20.297" y2="16" gradientUnits="userSpaceOnUse">
      <stop stop-color="#00A9FF"/>
      <stop offset=".88" stop-color="#00A9FF" stop-opacity=".6"/>
    </linearGradient>
    <filter id="a" width="64.4" height="37.4" x="8.3" y="67.3" color-interpolation-filters="sRGB" filterUnits="userSpaceOnUse">
      <feFlood flood-opacity="0" result="BackgroundImageFix"/>
      <feBlend in="SourceGraphic" in2="BackgroundImageFix" result="shape"/>
      <feGaussianBlur result="effect1_foregroundBlur_18_834" stdDeviation="8.35"/>
    </filter>
    <filter id="d" width="64.4" height="37.4" x="474.3" y=".3" color-interpolation-filters="sRGB" filterUnits="userSpaceOnUse">
      <feFlood flood-opacity="0" result="BackgroundImageFix"/>
      <feBlend in="SourceGraphic" in2="BackgroundImageFix" result="shape"/>
      <feGaussianBlur result="effect1_foregroundBlur_18_834" stdDeviation="8.35"/>
    </filter>
  </defs>
</svg>
