<?xml version="1.0" encoding="UTF-8"?>
<svg id="Capa_2" data-name="Capa 2" xmlns="http://www.w3.org/2000/svg" viewBox="0 0 1109.73 267.47">
  <defs>
    <style>
      .cls-1 {
        letter-spacing: 0em;
      }

      .cls-2 {
        letter-spacing: -.02em;
      }

      .cls-3, .cls-4 {
        fill: #009eff;
      }

      .cls-4 {
        font-family: MontserratRoman-SemiBold, Montserrat;
        font-size: 189.45px;
        font-variation-settings: 'wght' 600;
        font-weight: 600;
      }

      .cls-5 {
        letter-spacing: 0em;
      }

      .cls-6 {
        letter-spacing: -.02em;
      }
    </style>
  </defs>
  <g id="Capa_1-2" data-name="Capa 1">
    <g>
      <g>
        <g>
          <path class="cls-3" d="m70.22,153.23l-2.09,1.07,2.18-1.07h-.09Zm0,0l-2.09,1.07,2.18-1.07h-.09ZM224.25,18.1l-40.3,20.32s.04.04.04.04l40.3-20.32s0-.04-.04-.04ZM70.22,153.23l-2.09,1.07,2.18-1.07h-.09Zm-13.79,6.96l-29.12,14.69v.04l29.16-14.69-.04-.04Zm13.79-6.96l-2.09,1.07,2.18-1.07h-.09Zm0,0l-2.09,1.07,2.18-1.07h-.09Z"/>
          <path class="cls-3" d="m253.41,93.2c-2.43,19.38-8.97,35.99-19.6,49.91-10.67,13.88-24.72,24.55-42.22,32.06-17.5,7.51-37.95,11.27-61.39,11.27h-66.09l-10.12,81.03H15.78l10.76-86.33,33.17-16.74,7.6-3.84,14.56-7.34h51.32c24.46,0,43.63-5.25,57.55-15.67,13.92-10.46,22.07-25.23,24.46-44.36.6-4.74.77-9.18.51-13.36l-58.15,29.37-87.35,44.02-2.09,1.07-.04.04-11.66,5.85-29.12,14.69-6.45,3.24.04.04,1.02,2.13c.64,1.32-.64,2.78-2.01,2.26l-4.61-1.58-14.22-4.91c-.43-.17-.73-.47-.9-.85-.21-.38-.26-.81-.13-1.28l6.53-18.79c.51-1.37,2.43-1.49,3.07-.17l1.2,2.43,19.89-10.03,40.77-20.58L208.93,57.47l35.39-17.85c.68,1.15,1.37,2.35,1.96,3.54,1.07,2.09,2.05,4.23,2.86,6.45,1.45,3.71,2.6,7.6,3.42,11.66,2.01,9.69,2.31,20.32.85,31.93Z"/>
        </g>
        <path class="cls-3" d="m258.28,15.54l-6.53,18.83c-.47,1.37-2.39,1.49-3.03.17l-1.15-2.35-4.1,2.09-1.96.98-35.61,17.93L72.31,120.61l-40.77,20.58.56-4.61,2.86-22.97L49.13,0h104.34c23.44,0,42.95,3.67,58.62,11.06,2.48,1.2,4.82,2.43,7.09,3.8l-42.48,21.43c-8.2-2.05-17.72-3.07-28.52-3.07h-64.98l-7.47,59.86,108.27-54.6,40.3-20.32,13.23-6.7v-.04l-1.07-2.18c-.64-1.32.6-2.77,2.01-2.31l4.7,1.62,14.09,4.91c.9.3,1.32,1.24,1.02,2.09Z"/>
      </g>
      <text class="cls-4" transform="translate(315.91 215.78) skewX(-7.22)"><tspan class="cls-2" x="0" y="0">P</tspan><tspan class="cls-1" x="134.7" y="0">a</tspan><tspan class="cls-5" x="247.8" y="0">y</tspan><tspan x="356.35" y="0">S</tspan><tspan class="cls-6" x="475.52" y="0">t</tspan><tspan x="552.43" y="0">ell</tspan></text>
    </g>
  </g>
</svg>