<svg width="144" height="144" viewBox="0 0 144 144" fill="none" xmlns="http://www.w3.org/2000/svg">
<g clip-path="url(#clip0_18_1468)">
<path d="M72 0C111.738 0 144 32.2618 144 72C144 111.738 111.738 144 72 144C32.2618 144 0 111.738 0 72C0 32.2618 32.2618 0 72 0Z" fill="#009EFF"/>
<path d="M59.5713 78.8874L59.0371 79.1596L59.5944 78.8874H59.5728H59.5713ZM59.5713 78.8874L59.0371 79.1596L59.5944 78.8874H59.5728H59.5713ZM98.951 44.3433L88.6478 49.5388C88.6478 49.5503 88.6593 49.5503 88.6593 49.5503L98.9625 44.3548C98.9625 44.3471 98.9587 44.3433 98.951 44.3433ZM59.5713 78.8874L59.0371 79.1596L59.5944 78.8874H59.5728H59.5713ZM56.0462 80.6658L48.6028 84.4199V84.4314L56.0577 80.6773L56.0462 80.6658ZM59.5713 78.8874L59.0371 79.1596L59.5944 78.8874H59.5728H59.5713ZM59.5713 78.8874L59.0371 79.1596L59.5944 78.8874H59.5728H59.5713Z" fill="white"/>
<path d="M106.406 63.5416C105.784 68.4966 104.113 72.7432 101.396 76.3014C98.6672 79.8481 95.0759 82.5769 90.6018 84.4979C86.1263 86.4188 80.8991 87.3793 74.9072 87.3793H58.0117L55.4255 108.095H45.6565L48.4069 86.0257L56.8871 81.7475L58.8296 80.7654L62.552 78.8876H75.6719C81.9258 78.8876 86.8261 77.5456 90.3844 74.8816C93.9426 72.2075 96.0277 68.4304 96.6383 63.5416C96.7909 62.3305 96.8341 61.1944 96.7693 60.1259L81.9042 67.6355L59.5727 78.8891L59.0384 79.1612L59.0269 79.1728L56.0476 80.6675L48.6042 84.4216L46.9554 85.251L46.9669 85.2625L47.229 85.8083C47.3932 86.1467 47.0648 86.5182 46.7164 86.3872L45.537 85.984L41.9024 84.7283C41.793 84.6851 41.7167 84.6088 41.6735 84.5094C41.6188 84.4115 41.6087 84.302 41.6404 84.1825L43.3108 79.3801C43.4418 79.0302 43.9328 78.9985 44.097 79.3369L44.4023 79.959L49.4884 77.3944L59.9111 72.134L95.0341 54.4091L104.082 49.8472C104.256 50.1424 104.432 50.4476 104.584 50.7529C104.856 51.2872 105.108 51.8329 105.316 52.4017C105.687 53.3507 105.981 54.3443 106.188 55.3811C106.701 57.8593 106.777 60.5766 106.407 63.5459L106.406 63.5416Z" fill="white"/>
<path d="M107.65 43.6882L105.98 48.5022C105.86 48.8521 105.369 48.8838 105.205 48.5454L104.91 47.9449L103.861 48.4791L103.359 48.7297L94.2567 53.3132L60.1056 70.5471L49.6815 75.8074L49.824 74.6281L50.5555 68.7558L54.1786 39.7124H80.8531C86.845 39.7124 91.8331 40.6513 95.8392 42.5391C96.4728 42.8444 97.0719 43.1612 97.6507 43.5111L86.7903 48.9903C84.6951 48.4662 82.2615 48.2041 79.4995 48.2041H62.8877L60.9783 63.507L88.6579 49.5476L98.9611 44.3521L102.345 42.6385V42.627L102.073 42.0697C101.909 41.7313 102.226 41.3598 102.586 41.4807L103.787 41.8954L107.388 43.1511C107.617 43.2274 107.726 43.4679 107.65 43.6854V43.6882Z" fill="white"/>
</g>
<defs>
<clipPath id="clip0_18_1468">
<rect width="144" height="144" fill="white"/>
</clipPath>
</defs>
</svg>
