<svg width="412" height="256" viewBox="0 0 412 256" fill="none" xmlns="http://www.w3.org/2000/svg">
<g clip-path="url(#clip0_33_2706)">
<g filter="url(#filter0_i_33_2706)">
<path d="M223.82 79.19V70.41C223.82 68.77 222.58 66.91 221.04 66.29L209.9 61.73C207.4 60.71 204.58 60.71 202.08 61.73L190.94 66.29C189.42 66.91 188.18 68.77 188.18 70.41V79.19C188.18 88.97 195.28 98.13 204.98 100.81C205.64 100.99 206.36 100.99 207.02 100.81C216.72 98.13 223.82 88.97 223.82 79.19ZM207.5 82.69V87.95C207.5 88.77 206.82 89.45 206 89.45C205.18 89.45 204.5 88.77 204.5 87.95V82.69C202.48 82.05 201 80.17 201 77.95C201 75.19 203.24 72.95 206 72.95C208.76 72.95 211 75.19 211 77.95C211 80.19 209.52 82.05 207.5 82.69Z" fill="url(#paint0_linear_33_2706)"/>
</g>
<path opacity="0.05" d="M206.237 289.036C321.016 289.036 414.063 195.989 414.063 81.2099C414.063 -33.569 321.016 -126.616 206.237 -126.616C91.458 -126.616 -1.58871 -33.569 -1.58871 81.2099C-1.58871 195.989 91.458 289.036 206.237 289.036Z" stroke="#9394A1"/>
<path opacity="0.08" d="M206.237 230.684C288.789 230.684 355.711 163.762 355.711 81.2099C355.711 -1.34223 288.789 -68.2639 206.237 -68.2639C123.685 -68.2639 56.7632 -1.34223 56.7632 81.2099C56.7632 163.762 123.685 230.684 206.237 230.684Z" fill="url(#paint1_linear_33_2706)" stroke="#9394A1"/>
<path opacity="0.1" d="M206.237 179.097C260.299 179.097 304.124 135.272 304.124 81.2099C304.124 27.1482 260.299 -16.6775 206.237 -16.6775C152.175 -16.6775 108.35 27.1482 108.35 81.2099C108.35 135.272 152.175 179.097 206.237 179.097Z" fill="url(#paint2_linear_33_2706)" stroke="#9394A1"/>
<path opacity="0.15" d="M206.237 138.21C237.993 138.21 263.737 112.466 263.737 80.71C263.737 48.9536 237.993 23.21 206.237 23.21C174.481 23.21 148.737 48.9536 148.737 80.71C148.737 112.466 174.481 138.21 206.237 138.21Z" stroke="#9394A1"/>
</g>
<defs>
<filter id="filter0_i_33_2706" x="188.18" y="60.965" width="35.64" height="40.98" filterUnits="userSpaceOnUse" color-interpolation-filters="sRGB">
<feFlood flood-opacity="0" result="BackgroundImageFix"/>
<feBlend mode="normal" in="SourceGraphic" in2="BackgroundImageFix" result="shape"/>
<feColorMatrix in="SourceAlpha" type="matrix" values="0 0 0 0 0 0 0 0 0 0 0 0 0 0 0 0 0 0 127 0" result="hardAlpha"/>
<feOffset dy="1"/>
<feGaussianBlur stdDeviation="3.45"/>
<feComposite in2="hardAlpha" operator="arithmetic" k2="-1" k3="1"/>
<feColorMatrix type="matrix" values="0 0 0 0 0 0 0 0 0 0 0 0 0 0 0 0 0 0 0.25 0"/>
<feBlend mode="normal" in2="shape" result="effect1_innerShadow_33_2706"/>
</filter>
<linearGradient id="paint0_linear_33_2706" x1="181.127" y1="44.1361" x2="229.643" y2="95.4381" gradientUnits="userSpaceOnUse">
<stop stop-color="#00A9FF"/>
<stop offset="0.879822" stop-color="#00A9FF" stop-opacity="0.6"/>
</linearGradient>
<linearGradient id="paint1_linear_33_2706" x1="46" y1="-57.05" x2="382" y2="163.45" gradientUnits="userSpaceOnUse">
<stop stop-color="white"/>
<stop offset="1" stop-color="#D9D9D9"/>
</linearGradient>
<linearGradient id="paint2_linear_33_2706" x1="116.5" y1="11.95" x2="280" y2="178.95" gradientUnits="userSpaceOnUse">
<stop offset="0.00441672" stop-color="#D9D9D9"/>
<stop offset="1" stop-color="white"/>
</linearGradient>
<clipPath id="clip0_33_2706">
<rect width="416.074" height="416.074" fill="white" transform="translate(-1.8002 -126.827)"/>
</clipPath>
</defs>
</svg>
