<svg width="18" height="18" viewBox="0 0 18 18" fill="none" xmlns="http://www.w3.org/2000/svg">
<path d="M11.5425 3.90746L12.6 6.02246C12.7425 6.31496 13.125 6.59246 13.4475 6.65246L15.36 6.96746C16.5825 7.16996 16.8675 8.05496 15.99 8.93996L14.4975 10.4325C14.25 10.68 14.1075 11.1675 14.19 11.52L14.6175 13.365C14.955 14.82 14.175 15.39 12.8925 14.625L11.1 13.56C10.7775 13.365 10.2375 13.365 9.91502 13.56L8.12252 14.625C6.84002 15.3825 6.06002 14.82 6.39752 13.365L6.82502 11.52C6.89252 11.16 6.75002 10.6725 6.50252 10.425L5.01002 8.93246C4.13252 8.05496 4.41752 7.16996 5.64002 6.95996L7.55252 6.64496C7.87502 6.59246 8.25752 6.30746 8.40002 6.01496L9.45752 3.89996C10.035 2.75996 10.965 2.75996 11.5425 3.90746Z" fill="#009EFF"/>
<path d="M6 4.3125H1.5C1.1925 4.3125 0.9375 4.0575 0.9375 3.75C0.9375 3.4425 1.1925 3.1875 1.5 3.1875H6C6.3075 3.1875 6.5625 3.4425 6.5625 3.75C6.5625 4.0575 6.3075 4.3125 6 4.3125Z" fill="#009EFF"/>
<path d="M3.75 14.8125H1.5C1.1925 14.8125 0.9375 14.5575 0.9375 14.25C0.9375 13.9425 1.1925 13.6875 1.5 13.6875H3.75C4.0575 13.6875 4.3125 13.9425 4.3125 14.25C4.3125 14.5575 4.0575 14.8125 3.75 14.8125Z" fill="#009EFF"/>
<path d="M2.25 9.5625H1.5C1.1925 9.5625 0.9375 9.3075 0.9375 9C0.9375 8.6925 1.1925 8.4375 1.5 8.4375H2.25C2.5575 8.4375 2.8125 8.6925 2.8125 9C2.8125 9.3075 2.5575 9.5625 2.25 9.5625Z" fill="#009EFF"/>
</svg>
