<svg width="40" height="40" viewBox="0 0 40 40" fill="none" xmlns="http://www.w3.org/2000/svg">
<g clip-path="url(#clip0_18_1484)">
<rect width="40" height="40" rx="20" fill="white"/>
<g clip-path="url(#clip1_18_1484)">
<g clip-path="url(#clip2_18_1484)">
<path d="M27.622 15.2418C27.049 15.4948 26.442 15.6618 25.82 15.7358C26.4754 15.3438 26.9659 14.7268 27.2 13.9998C26.5843 14.3654 25.9106 14.6228 25.208 14.7608C24.7358 14.2565 24.1102 13.9222 23.4286 13.8099C22.7469 13.6975 22.0472 13.8133 21.438 14.1393C20.8289 14.4652 20.3444 14.9832 20.0598 15.6127C19.7752 16.2423 19.7064 16.9482 19.864 17.6208C18.6167 17.5585 17.3965 17.2345 16.2825 16.6699C15.1685 16.1054 14.1858 15.3129 13.398 14.3438C12.9958 15.0341 12.8722 15.8519 13.0525 16.6302C13.2328 17.4085 13.7033 18.0886 14.368 18.5318C13.8702 18.5162 13.3833 18.3818 12.948 18.1398V18.1798C12.9484 18.9041 13.1992 19.6059 13.658 20.1663C14.1167 20.7267 14.7551 21.1113 15.465 21.2548C15.0026 21.3802 14.5176 21.3987 14.047 21.3088C14.2471 21.9322 14.6372 22.4775 15.1626 22.8682C15.688 23.2589 16.3224 23.4756 16.977 23.4878C16.3264 23.9988 15.5814 24.3765 14.7848 24.5994C13.9881 24.8222 13.1553 24.8859 12.334 24.7868C13.7679 25.709 15.4371 26.1985 17.142 26.1968C22.912 26.1968 26.067 21.4168 26.067 17.2718C26.067 17.1368 26.063 16.9998 26.057 16.8668C26.6711 16.4228 27.201 15.8719 27.622 15.2418Z" fill="#009EFF"/>
<path d="M27.622 15.2418C27.049 15.4948 26.442 15.6618 25.82 15.7358C26.4754 15.3438 26.9659 14.7268 27.2 13.9998C26.5843 14.3654 25.9106 14.6228 25.208 14.7608C24.7358 14.2565 24.1102 13.9222 23.4286 13.8099C22.7469 13.6975 22.0472 13.8133 21.438 14.1393C20.8289 14.4652 20.3444 14.9832 20.0598 15.6127C19.7752 16.2423 19.7064 16.9482 19.864 17.6208C18.6167 17.5585 17.3965 17.2345 16.2825 16.6699C15.1685 16.1054 14.1858 15.3129 13.398 14.3438C12.9958 15.0341 12.8722 15.8519 13.0525 16.6302C13.2328 17.4085 13.7033 18.0886 14.368 18.5318C13.8702 18.5162 13.3833 18.3818 12.948 18.1398V18.1798C12.9484 18.9041 13.1992 19.6059 13.658 20.1663C14.1167 20.7267 14.7551 21.1113 15.465 21.2548C15.0026 21.3802 14.5176 21.3987 14.047 21.3088C14.2471 21.9322 14.6372 22.4775 15.1626 22.8682C15.688 23.2589 16.3224 23.4756 16.977 23.4878C16.3264 23.9988 15.5814 24.3765 14.7848 24.5994C13.9881 24.8222 13.1553 24.8859 12.334 24.7868C13.7679 25.709 15.4371 26.1985 17.142 26.1968C22.912 26.1968 26.067 21.4168 26.067 17.2718C26.067 17.1368 26.063 16.9998 26.057 16.8668C26.6711 16.4228 27.201 15.8719 27.622 15.2418Z" fill="url(#paint0_linear_18_1484)" fill-opacity="0.24"/>
</g>
</g>
<rect x="0.5" y="0.5" width="39" height="39" rx="19.5" stroke="#E9EBF1"/>
</g>
<defs>
<linearGradient id="paint0_linear_18_1484" x1="19.978" y1="13.7668" x2="19.978" y2="26.1968" gradientUnits="userSpaceOnUse">
<stop stop-color="white"/>
<stop offset="1" stop-color="white" stop-opacity="0"/>
</linearGradient>
<clipPath id="clip0_18_1484">
<rect width="40" height="40" rx="20" fill="white"/>
</clipPath>
<clipPath id="clip1_18_1484">
<rect width="24" height="24" fill="white" transform="translate(8 8)"/>
</clipPath>
<clipPath id="clip2_18_1484">
<rect width="24" height="24" fill="white" transform="translate(8 8)"/>
</clipPath>
</defs>
</svg>
